<svg class="rich-terminal" viewBox="0 0 1458 928.4" xmlns="http://www.w3.org/2000/svg">
    <!-- Generated with Rich https://www.textualize.io -->
    <style>

    @font-face {
        font-family: "Fira Code";
        src: local("FiraCode-Regular"),
                url("https://cdnjs.cloudflare.com/ajax/libs/firacode/6.2.0/woff2/FiraCode-Regular.woff2") format("woff2"),
                url("https://cdnjs.cloudflare.com/ajax/libs/firacode/6.2.0/woff/FiraCode-Regular.woff") format("woff");
        font-style: normal;
        font-weight: 400;
    }
    @font-face {
        font-family: "Fira Code";
        src: local("FiraCode-Bold"),
                url("https://cdnjs.cloudflare.com/ajax/libs/firacode/6.2.0/woff2/FiraCode-Bold.woff2") format("woff2"),
                url("https://cdnjs.cloudflare.com/ajax/libs/firacode/6.2.0/woff/FiraCode-Bold.woff") format("woff");
        font-style: bold;
        font-weight: 700;
    }

    .terminal-3871249128-matrix {
        font-family: Fira Code, monospace;
        font-size: 20px;
        line-height: 24.4px;
        font-variant-east-asian: full-width;
    }

    .terminal-3871249128-title {
        font-size: 18px;
        font-weight: bold;
        font-family: arial;
    }

    .terminal-3871249128-r1 { fill: #c5c8c6 }
.terminal-3871249128-r2 { fill: #565656 }
.terminal-3871249128-r3 { fill: #b3b3b3;font-weight: bold }
.terminal-3871249128-r4 { fill: #919191;font-weight: bold }
.terminal-3871249128-r5 { fill: #a1a1a1 }
.terminal-3871249128-r6 { fill: #8b8b8b }
.terminal-3871249128-r7 { fill: #e5e5e5 }
.terminal-3871249128-r8 { fill: #8a8a8a }
.terminal-3871249128-r9 { fill: #b3b3b3 }
.terminal-3871249128-r10 { fill: #a5a5a5 }
    </style>

    <defs>
    <clipPath id="terminal-3871249128-clip-terminal">
      <rect x="0" y="0" width="1438.6" height="877.4" />
    </clipPath>
    <clipPath id="terminal-3871249128-line-0">
    <rect x="0" y="1.5" width="1439.6" height="24.65"/>
            </clipPath>
<clipPath id="terminal-3871249128-line-1">
    <rect x="0" y="25.9" width="1439.6" height="24.65"/>
            </clipPath>
<clipPath id="terminal-3871249128-line-2">
    <rect x="0" y="50.3" width="1439.6" height="24.65"/>
            </clipPath>
<clipPath id="terminal-3871249128-line-3">
    <rect x="0" y="74.7" width="1439.6" height="24.65"/>
            </clipPath>
<clipPath id="terminal-3871249128-line-4">
    <rect x="0" y="99.1" width="1439.6" height="24.65"/>
            </clipPath>
<clipPath id="terminal-3871249128-line-5">
    <rect x="0" y="123.5" width="1439.6" height="24.65"/>
            </clipPath>
<clipPath id="terminal-3871249128-line-6">
    <rect x="0" y="147.9" width="1439.6" height="24.65"/>
            </clipPath>
<clipPath id="terminal-3871249128-line-7">
    <rect x="0" y="172.3" width="1439.6" height="24.65"/>
            </clipPath>
<clipPath id="terminal-3871249128-line-8">
    <rect x="0" y="196.7" width="1439.6" height="24.65"/>
            </clipPath>
<clipPath id="terminal-3871249128-line-9">
    <rect x="0" y="221.1" width="1439.6" height="24.65"/>
            </clipPath>
<clipPath id="terminal-3871249128-line-10">
    <rect x="0" y="245.5" width="1439.6" height="24.65"/>
            </clipPath>
<clipPath id="terminal-3871249128-line-11">
    <rect x="0" y="269.9" width="1439.6" height="24.65"/>
            </clipPath>
<clipPath id="terminal-3871249128-line-12">
    <rect x="0" y="294.3" width="1439.6" height="24.65"/>
            </clipPath>
<clipPath id="terminal-3871249128-line-13">
    <rect x="0" y="318.7" width="1439.6" height="24.65"/>
            </clipPath>
<clipPath id="terminal-3871249128-line-14">
    <rect x="0" y="343.1" width="1439.6" height="24.65"/>
            </clipPath>
<clipPath id="terminal-3871249128-line-15">
    <rect x="0" y="367.5" width="1439.6" height="24.65"/>
            </clipPath>
<clipPath id="terminal-3871249128-line-16">
    <rect x="0" y="391.9" width="1439.6" height="24.65"/>
            </clipPath>
<clipPath id="terminal-3871249128-line-17">
    <rect x="0" y="416.3" width="1439.6" height="24.65"/>
            </clipPath>
<clipPath id="terminal-3871249128-line-18">
    <rect x="0" y="440.7" width="1439.6" height="24.65"/>
            </clipPath>
<clipPath id="terminal-3871249128-line-19">
    <rect x="0" y="465.1" width="1439.6" height="24.65"/>
            </clipPath>
<clipPath id="terminal-3871249128-line-20">
    <rect x="0" y="489.5" width="1439.6" height="24.65"/>
            </clipPath>
<clipPath id="terminal-3871249128-line-21">
    <rect x="0" y="513.9" width="1439.6" height="24.65"/>
            </clipPath>
<clipPath id="terminal-3871249128-line-22">
    <rect x="0" y="538.3" width="1439.6" height="24.65"/>
            </clipPath>
<clipPath id="terminal-3871249128-line-23">
    <rect x="0" y="562.7" width="1439.6" height="24.65"/>
            </clipPath>
<clipPath id="terminal-3871249128-line-24">
    <rect x="0" y="587.1" width="1439.6" height="24.65"/>
            </clipPath>
<clipPath id="terminal-3871249128-line-25">
    <rect x="0" y="611.5" width="1439.6" height="24.65"/>
            </clipPath>
<clipPath id="terminal-3871249128-line-26">
    <rect x="0" y="635.9" width="1439.6" height="24.65"/>
            </clipPath>
<clipPath id="terminal-3871249128-line-27">
    <rect x="0" y="660.3" width="1439.6" height="24.65"/>
            </clipPath>
<clipPath id="terminal-3871249128-line-28">
    <rect x="0" y="684.7" width="1439.6" height="24.65"/>
            </clipPath>
<clipPath id="terminal-3871249128-line-29">
    <rect x="0" y="709.1" width="1439.6" height="24.65"/>
            </clipPath>
<clipPath id="terminal-3871249128-line-30">
    <rect x="0" y="733.5" width="1439.6" height="24.65"/>
            </clipPath>
<clipPath id="terminal-3871249128-line-31">
    <rect x="0" y="757.9" width="1439.6" height="24.65"/>
            </clipPath>
<clipPath id="terminal-3871249128-line-32">
    <rect x="0" y="782.3" width="1439.6" height="24.65"/>
            </clipPath>
<clipPath id="terminal-3871249128-line-33">
    <rect x="0" y="806.7" width="1439.6" height="24.65"/>
            </clipPath>
<clipPath id="terminal-3871249128-line-34">
    <rect x="0" y="831.1" width="1439.6" height="24.65"/>
            </clipPath>
    </defs>

    <rect fill="#292929" stroke="rgba(255,255,255,0.35)" stroke-width="1" x="1" y="1" width="1456" height="926.4" rx="8"/><text class="terminal-3871249128-title" fill="#c5c8c6" text-anchor="middle" x="728" y="27">uiu</text>
            <g transform="translate(26,22)">
            <circle cx="0" cy="0" r="7" fill="#ff5f57"/>
            <circle cx="22" cy="0" r="7" fill="#febc2e"/>
            <circle cx="44" cy="0" r="7" fill="#28c840"/>
            </g>
        
    <g transform="translate(9, 41)" clip-path="url(#terminal-3871249128-clip-terminal)">
    <rect fill="#0f0f0f" x="0" y="1.5" width="1439.6" height="24.65" shape-rendering="crispEdges"/><rect fill="#0f0f0f" x="0" y="25.9" width="1439.6" height="24.65" shape-rendering="crispEdges"/><rect fill="#0f0f0f" x="0" y="50.3" width="1439.6" height="24.65" shape-rendering="crispEdges"/><rect fill="#0f0f0f" x="0" y="74.7" width="1439.6" height="24.65" shape-rendering="crispEdges"/><rect fill="#0f0f0f" x="0" y="99.1" width="1439.6" height="24.65" shape-rendering="crispEdges"/><rect fill="#0f0f0f" x="0" y="123.5" width="1439.6" height="24.65" shape-rendering="crispEdges"/><rect fill="#0f0f0f" x="0" y="147.9" width="1439.6" height="24.65" shape-rendering="crispEdges"/><rect fill="#0f0f0f" x="0" y="172.3" width="1439.6" height="24.65" shape-rendering="crispEdges"/><rect fill="#0f0f0f" x="0" y="196.7" width="305" height="24.65" shape-rendering="crispEdges"/><rect fill="#1d1d1d" x="305" y="196.7" width="12.2" height="24.65" shape-rendering="crispEdges"/><rect fill="#1d1d1d" x="317.2" y="196.7" width="805.2" height="24.65" shape-rendering="crispEdges"/><rect fill="#1d1d1d" x="1122.4" y="196.7" width="12.2" height="24.65" shape-rendering="crispEdges"/><rect fill="#0f0f0f" x="1134.6" y="196.7" width="305" height="24.65" shape-rendering="crispEdges"/><rect fill="#0f0f0f" x="0" y="221.1" width="305" height="24.65" shape-rendering="crispEdges"/><rect fill="#1d1d1d" x="305" y="221.1" width="12.2" height="24.65" shape-rendering="crispEdges"/><rect fill="#1d1d1d" x="317.2" y="221.1" width="24.4" height="24.65" shape-rendering="crispEdges"/><rect fill="#1d1d1d" x="341.6" y="221.1" width="24.4" height="24.65" shape-rendering="crispEdges"/><rect fill="#1d1d1d" x="366" y="221.1" width="97.6" height="24.65" shape-rendering="crispEdges"/><rect fill="#1d1d1d" x="463.6" y="221.1" width="634.4" height="24.65" shape-rendering="crispEdges"/><rect fill="#1d1d1d" x="1098" y="221.1" width="24.4" height="24.65" shape-rendering="crispEdges"/><rect fill="#1d1d1d" x="1122.4" y="221.1" width="12.2" height="24.65" shape-rendering="crispEdges"/><rect fill="#0f0f0f" x="1134.6" y="221.1" width="305" height="24.65" shape-rendering="crispEdges"/><rect fill="#0f0f0f" x="0" y="245.5" width="305" height="24.65" shape-rendering="crispEdges"/><rect fill="#1d1d1d" x="305" y="245.5" width="12.2" height="24.65" shape-rendering="crispEdges"/><rect fill="#1d1d1d" x="317.2" y="245.5" width="24.4" height="24.65" shape-rendering="crispEdges"/><rect fill="#1d1d1d" x="341.6" y="245.5" width="756.4" height="24.65" shape-rendering="crispEdges"/><rect fill="#1d1d1d" x="1098" y="245.5" width="24.4" height="24.65" shape-rendering="crispEdges"/><rect fill="#1d1d1d" x="1122.4" y="245.5" width="12.2" height="24.65" shape-rendering="crispEdges"/><rect fill="#0f0f0f" x="1134.6" y="245.5" width="305" height="24.65" shape-rendering="crispEdges"/><rect fill="#0f0f0f" x="0" y="269.9" width="305" height="24.65" shape-rendering="crispEdges"/><rect fill="#1d1d1d" x="305" y="269.9" width="12.2" height="24.65" shape-rendering="crispEdges"/><rect fill="#1d1d1d" x="317.2" y="269.9" width="24.4" height="24.65" shape-rendering="crispEdges"/><rect fill="#1d1d1d" x="341.6" y="269.9" width="134.2" height="24.65" shape-rendering="crispEdges"/><rect fill="#1d1d1d" x="475.8" y="269.9" width="24.4" height="24.65" shape-rendering="crispEdges"/><rect fill="#1d1d1d" x="500.2" y="269.9" width="256.2" height="24.65" shape-rendering="crispEdges"/><rect fill="#1d1d1d" x="756.4" y="269.9" width="341.6" height="24.65" shape-rendering="crispEdges"/><rect fill="#1d1d1d" x="1098" y="269.9" width="24.4" height="24.65" shape-rendering="crispEdges"/><rect fill="#1d1d1d" x="1122.4" y="269.9" width="12.2" height="24.65" shape-rendering="crispEdges"/><rect fill="#0f0f0f" x="1134.6" y="269.9" width="305" height="24.65" shape-rendering="crispEdges"/><rect fill="#0f0f0f" x="0" y="294.3" width="305" height="24.65" shape-rendering="crispEdges"/><rect fill="#1d1d1d" x="305" y="294.3" width="12.2" height="24.65" shape-rendering="crispEdges"/><rect fill="#1d1d1d" x="317.2" y="294.3" width="24.4" height="24.65" shape-rendering="crispEdges"/><rect fill="#1d1d1d" x="341.6" y="294.3" width="134.2" height="24.65" shape-rendering="crispEdges"/><rect fill="#1d1d1d" x="475.8" y="294.3" width="24.4" height="24.65" shape-rendering="crispEdges"/><rect fill="#1d1d1d" x="500.2" y="294.3" width="256.2" height="24.65" shape-rendering="crispEdges"/><rect fill="#1d1d1d" x="756.4" y="294.3" width="341.6" height="24.65" shape-rendering="crispEdges"/><rect fill="#1d1d1d" x="1098" y="294.3" width="24.4" height="24.65" shape-rendering="crispEdges"/><rect fill="#1d1d1d" x="1122.4" y="294.3" width="12.2" height="24.65" shape-rendering="crispEdges"/><rect fill="#0f0f0f" x="1134.6" y="294.3" width="305" height="24.65" shape-rendering="crispEdges"/><rect fill="#0f0f0f" x="0" y="318.7" width="305" height="24.65" shape-rendering="crispEdges"/><rect fill="#1d1d1d" x="305" y="318.7" width="12.2" height="24.65" shape-rendering="crispEdges"/><rect fill="#1d1d1d" x="317.2" y="318.7" width="24.4" height="24.65" shape-rendering="crispEdges"/><rect fill="#1d1d1d" x="341.6" y="318.7" width="134.2" height="24.65" shape-rendering="crispEdges"/><rect fill="#1d1d1d" x="475.8" y="318.7" width="24.4" height="24.65" shape-rendering="crispEdges"/><rect fill="#1d1d1d" x="500.2" y="318.7" width="256.2" height="24.65" shape-rendering="crispEdges"/><rect fill="#1d1d1d" x="756.4" y="318.7" width="341.6" height="24.65" shape-rendering="crispEdges"/><rect fill="#1d1d1d" x="1098" y="318.7" width="24.4" height="24.65" shape-rendering="crispEdges"/><rect fill="#1d1d1d" x="1122.4" y="318.7" width="12.2" height="24.65" shape-rendering="crispEdges"/><rect fill="#0f0f0f" x="1134.6" y="318.7" width="305" height="24.65" shape-rendering="crispEdges"/><rect fill="#0f0f0f" x="0" y="343.1" width="305" height="24.65" shape-rendering="crispEdges"/><rect fill="#1d1d1d" x="305" y="343.1" width="12.2" height="24.65" shape-rendering="crispEdges"/><rect fill="#1d1d1d" x="317.2" y="343.1" width="24.4" height="24.65" shape-rendering="crispEdges"/><rect fill="#1d1d1d" x="341.6" y="343.1" width="134.2" height="24.65" shape-rendering="crispEdges"/><rect fill="#1d1d1d" x="475.8" y="343.1" width="24.4" height="24.65" shape-rendering="crispEdges"/><rect fill="#1d1d1d" x="500.2" y="343.1" width="256.2" height="24.65" shape-rendering="crispEdges"/><rect fill="#1d1d1d" x="756.4" y="343.1" width="341.6" height="24.65" shape-rendering="crispEdges"/><rect fill="#1d1d1d" x="1098" y="343.1" width="24.4" height="24.65" shape-rendering="crispEdges"/><rect fill="#1d1d1d" x="1122.4" y="343.1" width="12.2" height="24.65" shape-rendering="crispEdges"/><rect fill="#0f0f0f" x="1134.6" y="343.1" width="305" height="24.65" shape-rendering="crispEdges"/><rect fill="#0f0f0f" x="0" y="367.5" width="305" height="24.65" shape-rendering="crispEdges"/><rect fill="#1d1d1d" x="305" y="367.5" width="12.2" height="24.65" shape-rendering="crispEdges"/><rect fill="#1d1d1d" x="317.2" y="367.5" width="24.4" height="24.65" shape-rendering="crispEdges"/><rect fill="#1d1d1d" x="341.6" y="367.5" width="134.2" height="24.65" shape-rendering="crispEdges"/><rect fill="#1d1d1d" x="475.8" y="367.5" width="24.4" height="24.65" shape-rendering="crispEdges"/><rect fill="#1d1d1d" x="500.2" y="367.5" width="256.2" height="24.65" shape-rendering="crispEdges"/><rect fill="#1d1d1d" x="756.4" y="367.5" width="341.6" height="24.65" shape-rendering="crispEdges"/><rect fill="#1d1d1d" x="1098" y="367.5" width="24.4" height="24.65" shape-rendering="crispEdges"/><rect fill="#1d1d1d" x="1122.4" y="367.5" width="12.2" height="24.65" shape-rendering="crispEdges"/><rect fill="#0f0f0f" x="1134.6" y="367.5" width="305" height="24.65" shape-rendering="crispEdges"/><rect fill="#0f0f0f" x="0" y="391.9" width="305" height="24.65" shape-rendering="crispEdges"/><rect fill="#1d1d1d" x="305" y="391.9" width="12.2" height="24.65" shape-rendering="crispEdges"/><rect fill="#1d1d1d" x="317.2" y="391.9" width="24.4" height="24.65" shape-rendering="crispEdges"/><rect fill="#1d1d1d" x="341.6" y="391.9" width="134.2" height="24.65" shape-rendering="crispEdges"/><rect fill="#1d1d1d" x="475.8" y="391.9" width="24.4" height="24.65" shape-rendering="crispEdges"/><rect fill="#1d1d1d" x="500.2" y="391.9" width="256.2" height="24.65" shape-rendering="crispEdges"/><rect fill="#1d1d1d" x="756.4" y="391.9" width="341.6" height="24.65" shape-rendering="crispEdges"/><rect fill="#1d1d1d" x="1098" y="391.9" width="24.4" height="24.65" shape-rendering="crispEdges"/><rect fill="#1d1d1d" x="1122.4" y="391.9" width="12.2" height="24.65" shape-rendering="crispEdges"/><rect fill="#0f0f0f" x="1134.6" y="391.9" width="305" height="24.65" shape-rendering="crispEdges"/><rect fill="#0f0f0f" x="0" y="416.3" width="305" height="24.65" shape-rendering="crispEdges"/><rect fill="#1d1d1d" x="305" y="416.3" width="12.2" height="24.65" shape-rendering="crispEdges"/><rect fill="#1d1d1d" x="317.2" y="416.3" width="24.4" height="24.65" shape-rendering="crispEdges"/><rect fill="#1d1d1d" x="341.6" y="416.3" width="134.2" height="24.65" shape-rendering="crispEdges"/><rect fill="#1d1d1d" x="475.8" y="416.3" width="24.4" height="24.65" shape-rendering="crispEdges"/><rect fill="#1d1d1d" x="500.2" y="416.3" width="256.2" height="24.65" shape-rendering="crispEdges"/><rect fill="#1d1d1d" x="756.4" y="416.3" width="341.6" height="24.65" shape-rendering="crispEdges"/><rect fill="#1d1d1d" x="1098" y="416.3" width="24.4" height="24.65" shape-rendering="crispEdges"/><rect fill="#1d1d1d" x="1122.4" y="416.3" width="12.2" height="24.65" shape-rendering="crispEdges"/><rect fill="#0f0f0f" x="1134.6" y="416.3" width="305" height="24.65" shape-rendering="crispEdges"/><rect fill="#0f0f0f" x="0" y="440.7" width="305" height="24.65" shape-rendering="crispEdges"/><rect fill="#1d1d1d" x="305" y="440.7" width="12.2" height="24.65" shape-rendering="crispEdges"/><rect fill="#1d1d1d" x="317.2" y="440.7" width="24.4" height="24.65" shape-rendering="crispEdges"/><rect fill="#1d1d1d" x="341.6" y="440.7" width="134.2" height="24.65" shape-rendering="crispEdges"/><rect fill="#1d1d1d" x="475.8" y="440.7" width="24.4" height="24.65" shape-rendering="crispEdges"/><rect fill="#1d1d1d" x="500.2" y="440.7" width="256.2" height="24.65" shape-rendering="crispEdges"/><rect fill="#1d1d1d" x="756.4" y="440.7" width="341.6" height="24.65" shape-rendering="crispEdges"/><rect fill="#1d1d1d" x="1098" y="440.7" width="24.4" height="24.65" shape-rendering="crispEdges"/><rect fill="#1d1d1d" x="1122.4" y="440.7" width="12.2" height="24.65" shape-rendering="crispEdges"/><rect fill="#0f0f0f" x="1134.6" y="440.7" width="305" height="24.65" shape-rendering="crispEdges"/><rect fill="#0f0f0f" x="0" y="465.1" width="305" height="24.65" shape-rendering="crispEdges"/><rect fill="#1d1d1d" x="305" y="465.1" width="12.2" height="24.65" shape-rendering="crispEdges"/><rect fill="#1d1d1d" x="317.2" y="465.1" width="24.4" height="24.65" shape-rendering="crispEdges"/><rect fill="#1d1d1d" x="341.6" y="465.1" width="134.2" height="24.65" shape-rendering="crispEdges"/><rect fill="#1d1d1d" x="475.8" y="465.1" width="24.4" height="24.65" shape-rendering="crispEdges"/><rect fill="#1d1d1d" x="500.2" y="465.1" width="256.2" height="24.65" shape-rendering="crispEdges"/><rect fill="#1d1d1d" x="756.4" y="465.1" width="341.6" height="24.65" shape-rendering="crispEdges"/><rect fill="#1d1d1d" x="1098" y="465.1" width="24.4" height="24.65" shape-rendering="crispEdges"/><rect fill="#1d1d1d" x="1122.4" y="465.1" width="12.2" height="24.65" shape-rendering="crispEdges"/><rect fill="#0f0f0f" x="1134.6" y="465.1" width="305" height="24.65" shape-rendering="crispEdges"/><rect fill="#0f0f0f" x="0" y="489.5" width="305" height="24.65" shape-rendering="crispEdges"/><rect fill="#1d1d1d" x="305" y="489.5" width="12.2" height="24.65" shape-rendering="crispEdges"/><rect fill="#1d1d1d" x="317.2" y="489.5" width="24.4" height="24.65" shape-rendering="crispEdges"/><rect fill="#1d1d1d" x="341.6" y="489.5" width="134.2" height="24.65" shape-rendering="crispEdges"/><rect fill="#1d1d1d" x="475.8" y="489.5" width="24.4" height="24.65" shape-rendering="crispEdges"/><rect fill="#1d1d1d" x="500.2" y="489.5" width="256.2" height="24.65" shape-rendering="crispEdges"/><rect fill="#1d1d1d" x="756.4" y="489.5" width="341.6" height="24.65" shape-rendering="crispEdges"/><rect fill="#1d1d1d" x="1098" y="489.5" width="24.4" height="24.65" shape-rendering="crispEdges"/><rect fill="#1d1d1d" x="1122.4" y="489.5" width="12.2" height="24.65" shape-rendering="crispEdges"/><rect fill="#0f0f0f" x="1134.6" y="489.5" width="305" height="24.65" shape-rendering="crispEdges"/><rect fill="#0f0f0f" x="0" y="513.9" width="305" height="24.65" shape-rendering="crispEdges"/><rect fill="#1d1d1d" x="305" y="513.9" width="12.2" height="24.65" shape-rendering="crispEdges"/><rect fill="#1d1d1d" x="317.2" y="513.9" width="24.4" height="24.65" shape-rendering="crispEdges"/><rect fill="#1d1d1d" x="341.6" y="513.9" width="134.2" height="24.65" shape-rendering="crispEdges"/><rect fill="#1d1d1d" x="475.8" y="513.9" width="24.4" height="24.65" shape-rendering="crispEdges"/><rect fill="#1d1d1d" x="500.2" y="513.9" width="256.2" height="24.65" shape-rendering="crispEdges"/><rect fill="#1d1d1d" x="756.4" y="513.9" width="341.6" height="24.65" shape-rendering="crispEdges"/><rect fill="#1d1d1d" x="1098" y="513.9" width="24.4" height="24.65" shape-rendering="crispEdges"/><rect fill="#1d1d1d" x="1122.4" y="513.9" width="12.2" height="24.65" shape-rendering="crispEdges"/><rect fill="#0f0f0f" x="1134.6" y="513.9" width="305" height="24.65" shape-rendering="crispEdges"/><rect fill="#0f0f0f" x="0" y="538.3" width="305" height="24.65" shape-rendering="crispEdges"/><rect fill="#1d1d1d" x="305" y="538.3" width="12.2" height="24.65" shape-rendering="crispEdges"/><rect fill="#1d1d1d" x="317.2" y="538.3" width="24.4" height="24.65" shape-rendering="crispEdges"/><rect fill="#1d1d1d" x="341.6" y="538.3" width="134.2" height="24.65" shape-rendering="crispEdges"/><rect fill="#1d1d1d" x="475.8" y="538.3" width="24.4" height="24.65" shape-rendering="crispEdges"/><rect fill="#1d1d1d" x="500.2" y="538.3" width="256.2" height="24.65" shape-rendering="crispEdges"/><rect fill="#1d1d1d" x="756.4" y="538.3" width="341.6" height="24.65" shape-rendering="crispEdges"/><rect fill="#1d1d1d" x="1098" y="538.3" width="24.4" height="24.65" shape-rendering="crispEdges"/><rect fill="#1d1d1d" x="1122.4" y="538.3" width="12.2" height="24.65" shape-rendering="crispEdges"/><rect fill="#0f0f0f" x="1134.6" y="538.3" width="305" height="24.65" shape-rendering="crispEdges"/><rect fill="#0f0f0f" x="0" y="562.7" width="305" height="24.65" shape-rendering="crispEdges"/><rect fill="#1d1d1d" x="305" y="562.7" width="12.2" height="24.65" shape-rendering="crispEdges"/><rect fill="#1d1d1d" x="317.2" y="562.7" width="24.4" height="24.65" shape-rendering="crispEdges"/><rect fill="#1d1d1d" x="341.6" y="562.7" width="134.2" height="24.65" shape-rendering="crispEdges"/><rect fill="#1d1d1d" x="475.8" y="562.7" width="24.4" height="24.65" shape-rendering="crispEdges"/><rect fill="#1d1d1d" x="500.2" y="562.7" width="256.2" height="24.65" shape-rendering="crispEdges"/><rect fill="#1d1d1d" x="756.4" y="562.7" width="341.6" height="24.65" shape-rendering="crispEdges"/><rect fill="#1d1d1d" x="1098" y="562.7" width="24.4" height="24.65" shape-rendering="crispEdges"/><rect fill="#1d1d1d" x="1122.4" y="562.7" width="12.2" height="24.65" shape-rendering="crispEdges"/><rect fill="#0f0f0f" x="1134.6" y="562.7" width="305" height="24.65" shape-rendering="crispEdges"/><rect fill="#0f0f0f" x="0" y="587.1" width="305" height="24.65" shape-rendering="crispEdges"/><rect fill="#1d1d1d" x="305" y="587.1" width="12.2" height="24.65" shape-rendering="crispEdges"/><rect fill="#1d1d1d" x="317.2" y="587.1" width="24.4" height="24.65" shape-rendering="crispEdges"/><rect fill="#1d1d1d" x="341.6" y="587.1" width="756.4" height="24.65" shape-rendering="crispEdges"/><rect fill="#1d1d1d" x="1098" y="587.1" width="24.4" height="24.65" shape-rendering="crispEdges"/><rect fill="#1d1d1d" x="1122.4" y="587.1" width="12.2" height="24.65" shape-rendering="crispEdges"/><rect fill="#0f0f0f" x="1134.6" y="587.1" width="305" height="24.65" shape-rendering="crispEdges"/><rect fill="#0f0f0f" x="0" y="611.5" width="305" height="24.65" shape-rendering="crispEdges"/><rect fill="#1d1d1d" x="305" y="611.5" width="12.2" height="24.65" shape-rendering="crispEdges"/><rect fill="#1d1d1d" x="317.2" y="611.5" width="24.4" height="24.65" shape-rendering="crispEdges"/><rect fill="#1d1d1d" x="341.6" y="611.5" width="683.2" height="24.65" shape-rendering="crispEdges"/><rect fill="#1d1d1d" x="1024.8" y="611.5" width="73.2" height="24.65" shape-rendering="crispEdges"/><rect fill="#1d1d1d" x="1098" y="611.5" width="24.4" height="24.65" shape-rendering="crispEdges"/><rect fill="#1d1d1d" x="1122.4" y="611.5" width="12.2" height="24.65" shape-rendering="crispEdges"/><rect fill="#0f0f0f" x="1134.6" y="611.5" width="305" height="24.65" shape-rendering="crispEdges"/><rect fill="#0f0f0f" x="0" y="635.9" width="305" height="24.65" shape-rendering="crispEdges"/><rect fill="#1d1d1d" x="305" y="635.9" width="12.2" height="24.65" shape-rendering="crispEdges"/><rect fill="#1d1d1d" x="317.2" y="635.9" width="805.2" height="24.65" shape-rendering="crispEdges"/><rect fill="#1d1d1d" x="1122.4" y="635.9" width="12.2" height="24.65" shape-rendering="crispEdges"/><rect fill="#0f0f0f" x="1134.6" y="635.9" width="305" height="24.65" shape-rendering="crispEdges"/><rect fill="#0f0f0f" x="0" y="660.3" width="305" height="24.65" shape-rendering="crispEdges"/><rect fill="#1d1d1d" x="305" y="660.3" width="12.2" height="24.65" shape-rendering="crispEdges"/><rect fill="#1d1d1d" x="317.2" y="660.3" width="805.2" height="24.65" shape-rendering="crispEdges"/><rect fill="#1d1d1d" x="1122.4" y="660.3" width="12.2" height="24.65" shape-rendering="crispEdges"/><rect fill="#0f0f0f" x="1134.6" y="660.3" width="305" height="24.65" shape-rendering="crispEdges"/><rect fill="#0f0f0f" x="0" y="684.7" width="1439.6" height="24.65" shape-rendering="crispEdges"/><rect fill="#0f0f0f" x="0" y="709.1" width="1439.6" height="24.65" shape-rendering="crispEdges"/><rect fill="#0f0f0f" x="0" y="733.5" width="1439.6" height="24.65" shape-rendering="crispEdges"/><rect fill="#0f0f0f" x="0" y="757.9" width="1439.6" height="24.65" shape-rendering="crispEdges"/><rect fill="#0f0f0f" x="0" y="782.3" width="1439.6" height="24.65" shape-rendering="crispEdges"/><rect fill="#0f0f0f" x="0" y="806.7" width="1439.6" height="24.65" shape-rendering="crispEdges"/><rect fill="#0f0f0f" x="0" y="831.1" width="1439.6" height="24.65" shape-rendering="crispEdges"/><rect fill="#0f0f0f" x="0" y="855.5" width="1439.6" height="24.65" shape-rendering="crispEdges"/>
    <g class="terminal-3871249128-matrix">
    <text class="terminal-3871249128-r1" x="1439.6" y="20" textLength="12.2" clip-path="url(#terminal-3871249128-line-0)">
</text><text class="terminal-3871249128-r1" x="1439.6" y="44.4" textLength="12.2" clip-path="url(#terminal-3871249128-line-1)">
</text><text class="terminal-3871249128-r1" x="1439.6" y="68.8" textLength="12.2" clip-path="url(#terminal-3871249128-line-2)">
</text><text class="terminal-3871249128-r1" x="1439.6" y="93.2" textLength="12.2" clip-path="url(#terminal-3871249128-line-3)">
</text><text class="terminal-3871249128-r1" x="1439.6" y="117.6" textLength="12.2" clip-path="url(#terminal-3871249128-line-4)">
</text><text class="terminal-3871249128-r1" x="1439.6" y="142" textLength="12.2" clip-path="url(#terminal-3871249128-line-5)">
</text><text class="terminal-3871249128-r1" x="1439.6" y="166.4" textLength="12.2" clip-path="url(#terminal-3871249128-line-6)">
</text><text class="terminal-3871249128-r1" x="1439.6" y="190.8" textLength="12.2" clip-path="url(#terminal-3871249128-line-7)">
</text><text class="terminal-3871249128-r2" x="305" y="215.2" textLength="12.2" clip-path="url(#terminal-3871249128-line-8)">╭</text><text class="terminal-3871249128-r2" x="317.2" y="215.2" textLength="805.2" clip-path="url(#terminal-3871249128-line-8)">──────────────────────────────────────────────────────────────────</text><text class="terminal-3871249128-r2" x="1122.4" y="215.2" textLength="12.2" clip-path="url(#terminal-3871249128-line-8)">╮</text><text class="terminal-3871249128-r1" x="1439.6" y="215.2" textLength="12.2" clip-path="url(#terminal-3871249128-line-8)">
</text><text class="terminal-3871249128-r2" x="305" y="239.6" textLength="12.2" clip-path="url(#terminal-3871249128-line-9)">│</text><text class="terminal-3871249128-r3" x="341.6" y="239.6" textLength="24.4" clip-path="url(#terminal-3871249128-line-9)">◆&#160;</text><text class="terminal-3871249128-r4" x="366" y="239.6" textLength="48.8" clip-path="url(#terminal-3871249128-line-9)">运行状态</text><text class="terminal-3871249128-r2" x="1122.4" y="239.6" textLength="12.2" clip-path="url(#terminal-3871249128-line-9)">│</text><text class="terminal-3871249128-r1" x="1439.6" y="239.6" textLength="12.2" clip-path="url(#terminal-3871249128-line-9)">
</text><text class="terminal-3871249128-r2" x="305" y="264" textLength="12.2" clip-path="url(#terminal-3871249128-line-10)">│</text><text class="terminal-3871249128-r2" x="1122.4" y="264" textLength="12.2" clip-path="url(#terminal-3871249128-line-10)">│</text><text class="terminal-3871249128-r1" x="1439.6" y="264" textLength="12.2" clip-path="url(#terminal-3871249128-line-10)">
</text><text class="terminal-3871249128-r2" x="305" y="288.4" textLength="12.2" clip-path="url(#terminal-3871249128-line-11)">│</text><text class="terminal-3871249128-r5" x="341.6" y="288.4" textLength="134.2" clip-path="url(#terminal-3871249128-line-11)">&#160;&#160;&#160;&#160;&#160;&#160;agent</text><text class="terminal-3871249128-r4" x="500.2" y="288.4" textLength="256.2" clip-path="url(#terminal-3871249128-line-11)">agent&#160;&#160;&#160;&#160;&#160;&#160;&#160;&#160;&#160;&#160;&#160;&#160;&#160;&#160;&#160;&#160;</text><text class="terminal-3871249128-r2" x="1122.4" y="288.4" textLength="12.2" clip-path="url(#terminal-3871249128-line-11)">│</text><text class="terminal-3871249128-r1" x="1439.6" y="288.4" textLength="12.2" clip-path="url(#terminal-3871249128-line-11)">
</text><text class="terminal-3871249128-r2" x="305" y="312.8" textLength="12.2" clip-path="url(#terminal-3871249128-line-12)">│</text><text class="terminal-3871249128-r5" x="341.6" y="312.8" textLength="109.8" clip-path="url(#terminal-3871249128-line-12)">&#160;&#160;&#160;&#160;&#160;&#160;&#160;模型</text><text class="terminal-3871249128-r6" x="500.2" y="312.8" textLength="256.2" clip-path="url(#terminal-3871249128-line-12)">deepseek-chat&#160;&#160;&#160;&#160;&#160;&#160;&#160;&#160;</text><text class="terminal-3871249128-r2" x="1122.4" y="312.8" textLength="12.2" clip-path="url(#terminal-3871249128-line-12)">│</text><text class="terminal-3871249128-r1" x="1439.6" y="312.8" textLength="12.2" clip-path="url(#terminal-3871249128-line-12)">
</text><text class="terminal-3871249128-r2" x="305" y="337.2" textLength="12.2" clip-path="url(#terminal-3871249128-line-13)">│</text><text class="terminal-3871249128-r5" x="341.6" y="337.2" textLength="134.2" clip-path="url(#terminal-3871249128-line-13)">&#160;&#160;&#160;base_url</text><text class="terminal-3871249128-r5" x="500.2" y="337.2" textLength="231.8" clip-path="url(#terminal-3871249128-line-13)">(provider&#160;默认)&#160;&#160;&#160;&#160;&#160;&#160;</text><text class="terminal-3871249128-r2" x="1122.4" y="337.2" textLength="12.2" clip-path="url(#terminal-3871249128-line-13)">│</text><text class="terminal-3871249128-r1" x="1439.6" y="337.2" textLength="12.2" clip-path="url(#terminal-3871249128-line-13)">
</text><text class="terminal-3871249128-r2" x="305" y="361.6" textLength="12.2" clip-path="url(#terminal-3871249128-line-14)">│</text><text class="terminal-3871249128-r5" x="341.6" y="361.6" textLength="134.2" clip-path="url(#terminal-3871249128-line-14)">&#160;&#160;&#160;api_mode</text><text class="terminal-3871249128-r7" x="500.2" y="361.6" textLength="256.2" clip-path="url(#terminal-3871249128-line-14)">-&#160;&#160;&#160;&#160;&#160;&#160;&#160;&#160;&#160;&#160;&#160;&#160;&#160;&#160;&#160;&#160;&#160;&#160;&#160;&#160;</text><text class="terminal-3871249128-r2" x="1122.4" y="361.6" textLength="12.2" clip-path="url(#terminal-3871249128-line-14)">│</text><text class="terminal-3871249128-r1" x="1439.6" y="361.6" textLength="12.2" clip-path="url(#terminal-3871249128-line-14)">
</text><text class="terminal-3871249128-r2" x="305" y="386" textLength="12.2" clip-path="url(#terminal-3871249128-line-15)">│</text><text class="terminal-3871249128-r5" x="341.6" y="386" textLength="134.2" clip-path="url(#terminal-3871249128-line-15)">&#160;&#160;&#160;&#160;API&#160;key</text><text class="terminal-3871249128-r8" x="500.2" y="386" textLength="219.6" clip-path="url(#terminal-3871249128-line-15)">✗&#160;未配置&#160;&#160;(-)&#160;&#160;&#160;&#160;&#160;&#160;&#160;&#160;</text><text class="terminal-3871249128-r2" x="1122.4" y="386" textLength="12.2" clip-path="url(#terminal-3871249128-line-15)">│</text><text class="terminal-3871249128-r1" x="1439.6" y="386" textLength="12.2" clip-path="url(#terminal-3871249128-line-15)">
</text><text class="terminal-3871249128-r2" x="305" y="410.4" textLength="12.2" clip-path="url(#terminal-3871249128-line-16)">│</text><text class="terminal-3871249128-r5" x="341.6" y="410.4" textLength="109.8" clip-path="url(#terminal-3871249128-line-16)">&#160;&#160;&#160;&#160;&#160;&#160;&#160;渠道</text><text class="terminal-3871249128-r7" x="500.2" y="410.4" textLength="207.4" clip-path="url(#terminal-3871249128-line-16)">0&#160;启用&#160;/&#160;0&#160;配置&#160;&#160;&#160;&#160;&#160;&#160;</text><text class="terminal-3871249128-r2" x="1122.4" y="410.4" textLength="12.2" clip-path="url(#terminal-3871249128-line-16)">│</text><text class="terminal-3871249128-r1" x="1439.6" y="410.4" textLength="12.2" clip-path="url(#terminal-3871249128-line-16)">
</text><text class="terminal-3871249128-r2" x="305" y="434.8" textLength="12.2" clip-path="url(#terminal-3871249128-line-17)">│</text><text class="terminal-3871249128-r5" x="341.6" y="434.8" textLength="134.2" clip-path="url(#terminal-3871249128-line-17)">&#160;&#160;&#160;&#160;&#160;&#160;&#160;&#160;MCP</text><text class="terminal-3871249128-r7" x="500.2" y="434.8" textLength="256.2" clip-path="url(#terminal-3871249128-line-17)">0&#160;&#160;&#160;&#160;&#160;&#160;&#160;&#160;&#160;&#160;&#160;&#160;&#160;&#160;&#160;&#160;&#160;&#160;&#160;&#160;</text><text class="terminal-3871249128-r2" x="1122.4" y="434.8" textLength="12.2" clip-path="url(#terminal-3871249128-line-17)">│</text><text class="terminal-3871249128-r1" x="1439.6" y="434.8" textLength="12.2" clip-path="url(#terminal-3871249128-line-17)">
</text><text class="terminal-3871249128-r2" x="305" y="459.2" textLength="12.2" clip-path="url(#terminal-3871249128-line-18)">│</text><text class="terminal-3871249128-r5" x="341.6" y="459.2" textLength="85.4" clip-path="url(#terminal-3871249128-line-18)">工具&#160;/&#160;技能</text><text class="terminal-3871249128-r7" x="500.2" y="459.2" textLength="183" clip-path="url(#terminal-3871249128-line-18)">123&#160;个工具&#160;·&#160;0&#160;个技能</text><text class="terminal-3871249128-r2" x="1122.4" y="459.2" textLength="12.2" clip-path="url(#terminal-3871249128-line-18)">│</text><text class="terminal-3871249128-r1" x="1439.6" y="459.2" textLength="12.2" clip-path="url(#terminal-3871249128-line-18)">
</text><text class="terminal-3871249128-r2" x="305" y="483.6" textLength="12.2" clip-path="url(#terminal-3871249128-line-19)">│</text><text class="terminal-3871249128-r5" x="341.6" y="483.6" textLength="109.8" clip-path="url(#terminal-3871249128-line-19)">&#160;&#160;&#160;&#160;&#160;&#160;&#160;会话</text><text class="terminal-3871249128-r9" x="500.2" y="483.6" textLength="244" clip-path="url(#terminal-3871249128-line-19)">default&#160;·&#160;0&#160;轮&#160;&#160;&#160;&#160;&#160;&#160;&#160;</text><text class="terminal-3871249128-r2" x="1122.4" y="483.6" textLength="12.2" clip-path="url(#terminal-3871249128-line-19)">│</text><text class="terminal-3871249128-r1" x="1439.6" y="483.6" textLength="12.2" clip-path="url(#terminal-3871249128-line-19)">
</text><text class="terminal-3871249128-r2" x="305" y="508" textLength="12.2" clip-path="url(#terminal-3871249128-line-20)">│</text><text class="terminal-3871249128-r5" x="341.6" y="508" textLength="85.4" clip-path="url(#terminal-3871249128-line-20)">&#160;&#160;&#160;已存会话</text><text class="terminal-3871249128-r7" x="500.2" y="508" textLength="256.2" clip-path="url(#terminal-3871249128-line-20)">1&#160;&#160;&#160;&#160;&#160;&#160;&#160;&#160;&#160;&#160;&#160;&#160;&#160;&#160;&#160;&#160;&#160;&#160;&#160;&#160;</text><text class="terminal-3871249128-r2" x="1122.4" y="508" textLength="12.2" clip-path="url(#terminal-3871249128-line-20)">│</text><text class="terminal-3871249128-r1" x="1439.6" y="508" textLength="12.2" clip-path="url(#terminal-3871249128-line-20)">
</text><text class="terminal-3871249128-r2" x="305" y="532.4" textLength="12.2" clip-path="url(#terminal-3871249128-line-21)">│</text><text class="terminal-3871249128-r5" x="341.6" y="532.4" textLength="109.8" clip-path="url(#terminal-3871249128-line-21)">&#160;&#160;&#160;&#160;&#160;&#160;&#160;主题</text><text class="terminal-3871249128-r7" x="500.2" y="532.4" textLength="256.2" clip-path="url(#terminal-3871249128-line-21)">uiu-dark&#160;&#160;&#160;&#160;&#160;&#160;&#160;&#160;&#160;&#160;&#160;&#160;&#160;</text><text class="terminal-3871249128-r2" x="1122.4" y="532.4" textLength="12.2" clip-path="url(#terminal-3871249128-line-21)">│</text><text class="terminal-3871249128-r1" x="1439.6" y="532.4" textLength="12.2" clip-path="url(#terminal-3871249128-line-21)">
</text><text class="terminal-3871249128-r2" x="305" y="556.8" textLength="12.2" clip-path="url(#terminal-3871249128-line-22)">│</text><text class="terminal-3871249128-r5" x="341.6" y="556.8" textLength="109.8" clip-path="url(#terminal-3871249128-line-22)">&#160;&#160;&#160;&#160;&#160;&#160;&#160;版本</text><text class="terminal-3871249128-r7" x="500.2" y="556.8" textLength="256.2" clip-path="url(#terminal-3871249128-line-22)">v0.1.7&#160;&#160;&#160;&#160;&#160;&#160;&#160;&#160;&#160;&#160;&#160;&#160;&#160;&#160;&#160;</text><text class="terminal-3871249128-r2" x="1122.4" y="556.8" textLength="12.2" clip-path="url(#terminal-3871249128-line-22)">│</text><text class="terminal-3871249128-r1" x="1439.6" y="556.8" textLength="12.2" clip-path="url(#terminal-3871249128-line-22)">
</text><text class="terminal-3871249128-r2" x="305" y="581.2" textLength="12.2" clip-path="url(#terminal-3871249128-line-23)">│</text><text class="terminal-3871249128-r5" x="341.6" y="581.2" textLength="97.6" clip-path="url(#terminal-3871249128-line-23)">&#160;&#160;&#160;&#160;&#160;工作区</text><text class="terminal-3871249128-r5" x="500.2" y="581.2" textLength="256.2" clip-path="url(#terminal-3871249128-line-23)">docs\preview\_scratch</text><text class="terminal-3871249128-r2" x="1122.4" y="581.2" textLength="12.2" clip-path="url(#terminal-3871249128-line-23)">│</text><text class="terminal-3871249128-r1" x="1439.6" y="581.2" textLength="12.2" clip-path="url(#terminal-3871249128-line-23)">
</text><text class="terminal-3871249128-r2" x="305" y="605.6" textLength="12.2" clip-path="url(#terminal-3871249128-line-24)">│</text><text class="terminal-3871249128-r2" x="1122.4" y="605.6" textLength="12.2" clip-path="url(#terminal-3871249128-line-24)">│</text><text class="terminal-3871249128-r1" x="1439.6" y="605.6" textLength="12.2" clip-path="url(#terminal-3871249128-line-24)">
</text><text class="terminal-3871249128-r2" x="305" y="630" textLength="12.2" clip-path="url(#terminal-3871249128-line-25)">│</text><text class="terminal-3871249128-r10" x="341.6" y="630" textLength="585.6" clip-path="url(#terminal-3871249128-line-25)">Esc&#160;/&#160;Enter&#160;关闭&#160;&#160;·&#160;&#160;Ctrl+U&#160;会话用量&#160;&#160;·&#160;&#160;uiu&#160;doctor&#160;体检</text><text class="terminal-3871249128-r2" x="1122.4" y="630" textLength="12.2" clip-path="url(#terminal-3871249128-line-25)">│</text><text class="terminal-3871249128-r1" x="1439.6" y="630" textLength="12.2" clip-path="url(#terminal-3871249128-line-25)">
</text><text class="terminal-3871249128-r2" x="305" y="654.4" textLength="12.2" clip-path="url(#terminal-3871249128-line-26)">│</text><text class="terminal-3871249128-r2" x="1122.4" y="654.4" textLength="12.2" clip-path="url(#terminal-3871249128-line-26)">│</text><text class="terminal-3871249128-r1" x="1439.6" y="654.4" textLength="12.2" clip-path="url(#terminal-3871249128-line-26)">
</text><text class="terminal-3871249128-r2" x="305" y="678.8" textLength="12.2" clip-path="url(#terminal-3871249128-line-27)">╰</text><text class="terminal-3871249128-r2" x="317.2" y="678.8" textLength="805.2" clip-path="url(#terminal-3871249128-line-27)">──────────────────────────────────────────────────────────────────</text><text class="terminal-3871249128-r2" x="1122.4" y="678.8" textLength="12.2" clip-path="url(#terminal-3871249128-line-27)">╯</text><text class="terminal-3871249128-r1" x="1439.6" y="678.8" textLength="12.2" clip-path="url(#terminal-3871249128-line-27)">
</text><text class="terminal-3871249128-r1" x="1439.6" y="703.2" textLength="12.2" clip-path="url(#terminal-3871249128-line-28)">
</text><text class="terminal-3871249128-r1" x="1439.6" y="727.6" textLength="12.2" clip-path="url(#terminal-3871249128-line-29)">
</text><text class="terminal-3871249128-r1" x="1439.6" y="752" textLength="12.2" clip-path="url(#terminal-3871249128-line-30)">
</text><text class="terminal-3871249128-r1" x="1439.6" y="776.4" textLength="12.2" clip-path="url(#terminal-3871249128-line-31)">
</text><text class="terminal-3871249128-r1" x="1439.6" y="800.8" textLength="12.2" clip-path="url(#terminal-3871249128-line-32)">
</text><text class="terminal-3871249128-r1" x="1439.6" y="825.2" textLength="12.2" clip-path="url(#terminal-3871249128-line-33)">
</text><text class="terminal-3871249128-r1" x="1439.6" y="849.6" textLength="12.2" clip-path="url(#terminal-3871249128-line-34)">
</text>
    </g>
    </g>
</svg>
